<?xml version="1.0" standalone="no"?>
<!DOCTYPE svg PUBLIC "-//W3C//DTD SVG 20010904//EN"
 "http://www.w3.org/TR/2001/REC-SVG-20010904/DTD/svg10.dtd">
<svg version="1.0" xmlns="http://www.w3.org/2000/svg"
 width="512.000000pt" height="512.000000pt" viewBox="0 0 512.000000 512.000000"
 preserveAspectRatio="xMidYMid meet">

<g transform="translate(0.000000,512.000000) scale(0.100000,-0.100000)"
fill="Gainsboro" stroke="none">
<path d="M1280 5105 c-330 -66 -589 -367 -590 -686 0 -86 31 -203 76 -290 40
-75 146 -197 212 -243 l41 -28 -14 -37 c-52 -147 -67 -425 -32 -587 39 -184
124 -372 230 -513 l64 -85 -106 -105 c-119 -119 -168 -194 -207 -316 -65 -202
-30 -385 105 -552 l50 -62 -10 -48 c-6 -27 -13 -151 -15 -276 l-5 -228 -39
-36 c-59 -52 -125 -158 -154 -245 -31 -90 -35 -227 -11 -318 42 -158 165 -306
317 -379 152 -74 90 -71 1368 -71 1277 0 1220 -3 1366 70 136 67 174 121 126
181 -27 33 -68 29 -132 -14 -72 -47 -158 -77 -245 -84 -260 -20 -494 167 -512
409 -8 114 -4 122 132 234 66 55 148 131 183 169 l63 69 97 -1 c104 -1 175
-19 259 -68 67 -40 138 -118 175 -192 34 -69 35 -79 38 -300 0 -20 42 -53 66
-53 13 0 36 11 51 24 27 23 28 28 31 129 3 78 -1 121 -13 164 -26 90 -83 190
-147 257 l-58 61 -4 225 c-2 124 -9 247 -15 274 -11 48 -11 48 30 95 53 59 93
129 121 211 18 52 23 86 22 170 0 91 -4 117 -31 192 -49 139 -158 287 -286
385 l-29 22 65 86 c176 235 267 521 253 800 -5 111 -30 252 -55 317 -9 24 -6
28 30 54 66 45 171 166 212 242 94 175 101 376 19 553 -40 86 -78 140 -153
216 -221 223 -553 285 -819 155 -57 -28 -96 -58 -160 -122 -47 -47 -99 -102
-115 -122 l-30 -38 -75 20 c-154 42 -257 54 -460 54 -203 0 -306 -12 -460 -54
l-75 -20 -30 37 c-97 121 -225 233 -265 233 -10 0 -29 -9 -44 -21 -39 -31 -36
-82 7 -117 46 -38 177 -171 177 -180 0 -4 -30 -21 -66 -36 -36 -16 -107 -54
-158 -84 -227 -137 -394 -302 -525 -521 l-51 -84 -72 74 c-105 107 -158 225
-158 354 0 250 231 498 499 537 95 14 121 32 121 83 0 24 -7 39 -26 54 -30 24
-60 25 -154 6z m2526 -146 c94 -17 214 -80 292 -153 233 -221 243 -516 25
-735 l-73 -74 -51 84 c-157 263 -396 475 -673 600 -42 19 -76 37 -76 41 0 20
161 169 208 192 105 53 221 68 348 45z m-956 -285 c566 -99 1009 -470 1137
-951 23 -85 26 -119 27 -253 0 -128 -4 -170 -22 -245 -69 -276 -242 -526 -485
-699 l-67 -48 -63 26 c-245 104 -537 57 -749 -118 l-68 -56 -67 56 c-213 175
-505 222 -750 118 l-63 -26 -67 48 c-190 136 -344 326 -428 528 -62 151 -79
240 -79 416 1 134 4 168 27 253 65 245 222 479 433 643 236 185 499 287 844
328 73 9 349 -4 440 -20z m-1411 -2203 c33 -27 69 -56 82 -64 l23 -16 -52 -55
c-62 -65 -72 -97 -45 -134 17 -23 36 -30 124 -49 125 -25 257 -71 359 -124
241 -124 306 -319 155 -465 -46 -45 -61 -54 -123 -68 -310 -70 -721 103 -847
357 -98 199 -20 442 202 622 30 25 57 45 59 45 3 0 31 -22 63 -49z m2373 -6
c212 -176 290 -423 194 -618 -120 -245 -529 -418 -841 -355 -173 34 -262 211
-179 358 72 129 298 249 564 300 77 15 99 24 118 45 37 43 28 69 -52 153 l-40
42 23 17 c13 9 49 37 80 64 31 26 58 48 61 48 3 1 36 -24 72 -54z m-1663 -70
c112 -27 185 -69 287 -166 123 -118 125 -118 248 -1 105 101 177 142 293 168
138 31 300 5 419 -67 30 -18 54 -36 54 -39 0 -3 -43 -19 -96 -35 -124 -37
-293 -120 -369 -182 -123 -100 -179 -205 -178 -338 1 -175 107 -322 273 -376
90 -29 274 -37 395 -16 49 9 91 15 92 13 2 -1 -21 -42 -49 -89 -103 -168 -202
-268 -503 -504 -257 -201 -445 -343 -455 -343 -13 0 -467 350 -634 488 -71 58
-161 144 -201 190 -67 77 -180 250 -171 259 2 3 50 -3 107 -13 166 -27 340
-10 450 47 54 27 126 104 159 168 83 165 52 331 -89 472 -36 36 -95 82 -130
103 -83 48 -228 110 -311 132 -79 21 -78 21 -54 39 119 89 310 126 463 90z
m-779 -995 c7 -19 32 -74 56 -122 l43 -87 -47 -6 c-47 -7 -148 -30 -177 -41
-13 -5 -15 11 -15 122 0 71 3 152 6 181 l7 52 57 -32 c45 -24 60 -39 70 -67z
m2514 38 c3 -29 6 -109 6 -177 0 -106 -2 -122 -15 -117 -29 11 -130 34 -177
41 l-47 6 34 67 c18 37 45 93 58 124 21 48 33 61 74 82 26 14 51 25 54 26 3 0
9 -24 13 -52z m-2239 -476 c33 -36 114 -111 180 -166 136 -112 140 -120 132
-234 -20 -272 -313 -468 -592 -397 -143 37 -260 130 -317 251 -26 56 -33 84
-36 155 -5 107 12 173 68 257 92 137 263 218 435 206 l69 -6 61 -66z m658
-542 c197 -151 234 -170 295 -151 20 6 119 74 219 151 100 77 184 140 187 140
2 0 7 -19 11 -42 17 -114 63 -212 141 -303 l55 -65 -651 0 -651 0 55 65 c78
91 124 189 141 303 4 23 9 42 11 42 3 0 87 -63 187 -140z"/>
<path d="M1995 3895 c-24 -23 -25 -30 -25 -148 0 -111 2 -127 21 -151 27 -34
79 -36 109 -4 18 20 20 35 20 150 0 124 -1 130 -25 153 -13 14 -36 25 -50 25
-14 0 -37 -11 -50 -25z"/>
<path d="M3025 3895 c-24 -23 -25 -29 -25 -153 0 -115 2 -130 20 -150 30 -32
82 -30 109 4 19 24 21 40 21 151 0 118 -1 125 -25 148 -13 14 -36 25 -50 25
-14 0 -37 -11 -50 -25z"/>
<path d="M2418 3519 c-165 -13 -250 -70 -285 -188 -56 -194 74 -409 288 -476
l57 -18 4 -69 c6 -83 24 -108 78 -108 54 0 72 25 78 108 l4 69 69 22 c158 51
273 191 286 351 11 129 -45 235 -146 279 -34 14 -87 24 -168 31 -130 11 -126
11 -265 -1z m355 -160 c75 -20 99 -116 53 -214 -49 -104 -142 -159 -266 -159
-124 0 -217 55 -266 159 -39 83 -26 177 28 206 50 27 356 32 451 8z"/>
</g>
</svg>
